<svg xmlns="http://www.w3.org/2000/svg" width="1em" height="1em" viewBox="0 0 24 24">
	<rect width="24" height="24" fill="none" />
	<mask id="lineMdSpeedometerLoop0">
		<path fill="none" stroke="#fff" stroke-dasharray="46" stroke-dashoffset="46" stroke-linecap="round" stroke-width="2" d="M21 13C21 8.02944 16.9706 4 12 4C7.02944 4 3 8.02944 3 13C3 17.9706 7.02944 22 12 22" transform="rotate(45 12 13)">
			<animate fill="freeze" attributeName="stroke-dashoffset" dur="0.9s" values="46;92" />
		</path>
		<g fill-opacity="0" transform="rotate(-100 12 13)">
			<path d="M12 14C12 14 12 14 12 14C12 14 12 14 12 14C12 14 12 14 12 14C12 14 12 14 12 14Z">
				<animate fill="freeze" attributeName="d" begin="0.6s" dur="0.3s" values="M12 14C12 14 12 14 12 14C12 14 12 14 12 14C12 14 12 14 12 14C12 14 12 14 12 14Z;M17 13C17 15.7614 14.7614 18 12 18C9.23858 18 7 15.7614 7 13C7 10.2386 12 -2 12 -2C12 -2 17 10.2386 17 13Z" />
			</path>
			<path fill="#fff" d="M12 14C12 14 12 14 12 14C12 14 12 14 12 14C12 14 12 14 12 14C12 14 12 14 12 14Z">
				<animate fill="freeze" attributeName="d" begin="0.6s" dur="0.3s" values="M12 14C12 14 12 14 12 14C12 14 12 14 12 14C12 14 12 14 12 14C12 14 12 14 12 14Z;M15 13C15 14.6568 13.6569 16 12 16C10.3431 16 9 14.6568 9 13C9 11.3431 12 2 12 2C12 2 15 11.3431 15 13Z" />
			</path>
			<set attributeName="fill-opacity" begin="0.6s" to="1" />
			<animateTransform attributeName="transform" begin="0.9s" dur="9s" repeatCount="indefinite" type="rotate" values="-100 12 13;65 12 13;65 12 13;65 12 13;30 12 13;10 12 13;0 12 13;35 12 13;55 12 13;65 12 13;75 12 13;15 12 13;-20 12 13;-100 12 13" />
		</g>
	</mask>
	<rect width="24" height="24" fill="#3a5dae" mask="url(#lineMdSpeedometerLoop0)" />
</svg>